{"asset": {"version": "2.0", "generator": "engine-demo"}, "scene": 0, "scenes": [{"nodes": [0]}], "nodes": [{"mesh": 0}], "meshes": [{"primitives": [{"attributes": {"POSITION": 1, "NORMAL": 2, "COLOR_0": 3}, "indices": 0, "mode": 4, "material": 0}]}], "materials": [{"pbrMetallicRoughness": {"baseColorFactor": [0.25, 0.55, 0.22, 1], "metallicFactor": 0, "roughnessFactor": 1}}], "buffers": [{"uri": "data:application/octet-stream;base64,", "byteLength": 1872}], "bufferViews": [{"buffer": 0, "byteOffset": 0, "byteLength": 144, "target": 34963}, {"buffer": 0, "byteOffset": 144, "byteLength": 576, "target": 34962}, {"buffer": 0, "byteOffset": 720, "byteLength": 576, "target": 34962}, {"buffer": 0, "byteOffset": 1296, "byteLength": 576, "target": 34962}], "accessors": [{"bufferView": 0, "componentType": 5123, "count": 72, "type": "SCALAR", "max": [47], "min": [0]}, {"bufferView": 1, "componentType": 5126, "count": 48, "type": "VEC3", "max": [0.6, 2.0, 0.6], "min": [-0.6, 0.0, -0.6]}, {"bufferView": 2, "componentType": 5126, "count": 48, "type": "VEC3"}, {"bufferView": 3, "componentType": 5126, "count": 48, "type": "VEC3"}]}